# xmcd
#
# Track frame offsets: 
#        150
#        27936
#        57769
#        81172
#        115257
#        133782
#        152250
#        171389
#        197600
#        222702
#        249762
#        278225
#
# Disc length: 3951 seconds
#
# Revision: 0
# Processed by: cddbd v1.5.2PL0 Copyright (c) Steve Scherf et al.
# Submitted via: ExactAudioCopy v0.99pb5
#
DISCID=a40f6d0c
DTITLE=Cotton Field Blues Band - Bayoogie Party
DYEAR=1996
DGENRE=Blues and Boogie
TTITLE0=Come On Baby, Dance With Me Now
TTITLE1=Basin Street Blues - Sunny Side Of The Street
TTITLE2=New Orleans Bayoogie Party
TTITLE3=Honesty
TTITLE4=New Orleans Medley
TTITLE5=If Love Is A Game
TTITLE6=Iko, Iko
TTITLE7=Junco Partner
TTITLE8=Life
TTITLE9=When Something Is Wrong With My Baby
TTITLE10=Georgia On My Mind
TTITLE11=Boogie Biene Vom Land
EXTD=
EXTT0=
EXTT1=
EXTT2=
EXTT3=
EXTT4=
EXTT5=
EXTT6=
EXTT7=
EXTT8=
EXTT9=
EXTT10=
EXTT11=
PLAYORDER=
